# xmcd CD database file
#
# Track frame offsets:
#	150
#	20924
#	40231
#	61005
#
# Disc length: 1067 seconds
#
# Revision: 4
# Processed by: cddbd v1.5.2PL0 Copyright (c) Steve Scherf et al.
# Submitted via: CDex 1.70beta3
#
DISCID=2d042904
DTITLE=Suara - 光の季節
DYEAR=2006
DGENRE=Anime(J)
TTITLE0=光の季節
TTITLE1=傘
TTITLE2=衣笠道雄/光の季節 (instrumental)
TTITLE3=菊地美司代/傘 (instrumental)
EXTD=YEAR: 2006
EXTT0=
EXTT1=
EXTT2=
EXTT3=
PLAYORDER=
